<svg xmlns="http://www.w3.org/2000/svg" viewBox="0 0 512 512">
  <defs>
    <linearGradient id="pin" x1="0" y1="0" x2="0" y2="1">
      <stop offset="0%" stop-color="#3b82f6"/>
      <stop offset="100%" stop-color="#1d4ed8"/>
    </linearGradient>
    <linearGradient id="sun" x1="0" y1="0" x2="1" y2="1">
      <stop offset="0%" stop-color="#fbbf24"/>
      <stop offset="100%" stop-color="#f59e0b"/>
    </linearGradient>
  </defs>
  <!-- Pin shape -->
  <path d="M256 480 C256 480 420 300 420 200 C420 109.6 346.4 36 256 36 C165.6 36 92 109.6 92 200 C92 300 256 480 256 480Z" fill="url(#pin)"/>
  <!-- Inner circle -->
  <circle cx="256" cy="195" r="120" fill="#e0edff" opacity="0.25"/>
  <!-- Sun -->
  <circle cx="230" cy="165" r="48" fill="url(#sun)"/>
  <!-- Sun rays -->
  <g stroke="#fbbf24" stroke-width="8" stroke-linecap="round" opacity="0.9">
    <line x1="230" y1="105" x2="230" y2="90"/>
    <line x1="230" y1="225" x2="230" y2="240"/>
    <line x1="170" y1="165" x2="155" y2="165"/>
    <line x1="290" y1="165" x2="305" y2="165"/>
    <line x1="188" y1="123" x2="177" y2="112"/>
    <line x1="188" y1="207" x2="177" y2="218"/>
    <line x1="272" y1="123" x2="283" y2="112"/>
  </g>
  <!-- Cloud -->
  <path d="M210 248 C210 248 198 248 190 240 C180 230 182 214 194 208 C196 194 210 184 226 186 C232 176 246 170 260 174 C274 170 290 178 294 192 C310 194 320 208 316 222 C320 236 310 248 296 248 Z" fill="white"/>
</svg>
